# File created by Blade
# Date/Time:  Thu Jan 22 18:25:10 2015
# Frame Rate: 120.000 fps
#------------------------------------------------------
:FULLY-SPECIFIED
:DEGREES
1888
root -3.117610 33.275489 -0.542204 7.986573 -2.240214 2.546206
RightUpLeg -2.203308 -5.586760 -1.352514
RightLeg 0.496918 -0.000000 -0.000000
RightFoot -10.528132 -2.924613 2.715149
RightToeBase 5.567128 -0.000000 -0.000000
LeftUpLeg -2.473250 3.529323 1.113682
LeftLeg 2.387524 -0.000000 -0.000000
LeftFoot -10.050333 2.709578 -10.081393
LeftToeBase 8.581593 -0.000000 -0.000000
Spine -12.175028 8.130484 0.398799
RightShoulder 28.178139 53.178939 -33.194401
RightArm 88.178655 -38.844658 72.228348
RightForeArm -18.064442 -0.000000 48.986644
RightHand 10.850155 -0.000000 -6.413137
RightHandThumb1 -24.326973 -0.000000 -32.862282
LeftShoulder -7.212373 -4.711736 13.138484
LeftArm 32.630216 30.033136 -82.851182
LeftForeArm -56.104959 -0.000000 117.221491
LeftHand 7.371285 0.000000 -29.031710
LeftHandThumb1 -26.253704 0.000000 33.147579
Head -2.508708 -5.520394 -7.860048
1889
root -3.118970 33.273879 -0.535134 8.005475 -2.265631 2.541224
RightUpLeg -2.199469 -5.548281 -1.349574
RightLeg 0.466331 -0.000000 -0.000000
RightFoot -10.528311 -2.940010 2.723456
RightToeBase 5.566479 -0.000000 -0.000000
LeftUpLeg -2.472300 3.546882 1.116152
LeftLeg 2.380647 -0.000000 -0.000000
LeftFoot -10.063078 2.718490 -10.065670
LeftToeBase 8.540325 -0.000000 -0.000000
Spine -12.219165 8.261951 0.384562
RightShoulder 28.271279 53.085772 -33.122400
RightArm 88.257403 -38.851660 72.129750
RightForeArm -18.066175 0.000000 48.921531
RightHand 10.858512 0.000000 -6.405863
RightHandThumb1 -24.326973 -0.000000 -32.862282
LeftShoulder -7.212015 -4.734835 13.005485
LeftArm 32.624819 30.034030 -82.804957
LeftForeArm -56.067019 -0.000000 117.194842
LeftHand 7.438337 -0.000000 -29.104645
LeftHandThumb1 -26.253704 0.000000 33.147579
Head -2.404141 -5.533551 -7.887153
1890
root -3.120354 33.271609 -0.528215 8.025309 -2.286329 2.540862
RightUpLeg -2.199871 -5.542173 -1.348403
RightLeg 0.443782 -0.000000 -0.000000
RightFoot -10.536990 -2.928176 2.715844
RightToeBase 5.571724 -0.000000 -0.000000
LeftUpLeg -2.469434 3.547582 1.116515
LeftLeg 2.365211 -0.000000 -0.000000
LeftFoot -10.083008 2.734580 -10.063869
LeftToeBase 8.550648 -0.000000 -0.000000
Spine -12.266153 8.396166 0.336635
RightShoulder 28.239938 52.886442 -33.077169
RightArm 88.514746 -38.866109 71.884456
RightForeArm -18.045206 -0.000000 48.837948
RightHand 10.937220 -0.000000 -6.574690
RightHandThumb1 -24.326973 -0.000000 -32.862282
LeftShoulder -7.207724 -4.793282 12.922434
LeftArm 32.580628 30.064594 -82.813247
LeftForeArm -55.996543 -0.000000 117.139923
LeftHand 7.463230 0.000000 -29.195461
LeftHandThumb1 -26.253704 0.000000 33.147579
Head -2.282890 -5.622568 -7.860032
1891
root -3.123637 33.270283 -0.519789 8.034408 -2.299606 2.526963
RightUpLeg -2.182738 -5.529777 -1.332174
RightLeg 0.417771 -0.000000 -0.000000
RightFoot -10.535245 -2.920171 2.728048
RightToeBase 5.583470 -0.000000 -0.000000
LeftUpLeg -2.464046 3.556112 1.129583
LeftLeg 2.379229 -0.000000 -0.000000
LeftFoot -10.134050 2.751173 -10.122412
LeftToeBase 8.599789 -0.000000 -0.000000
Spine -12.292803 8.505819 0.313352
RightShoulder 28.239148 52.794706 -33.025726
RightArm 88.539988 -38.922290 71.834864
RightForeArm -18.196224 -0.000000 48.852037
RightHand 10.851015 -0.000000 -6.537078
RightHandThumb1 -24.326973 -0.000000 -32.862282
LeftShoulder -7.218595 -4.806042 12.836519
LeftArm 32.570335 30.093189 -82.797893
LeftForeArm -55.903115 -0.000000 117.104430
LeftHand 7.492940 -0.000000 -29.267863
LeftHandThumb1 -26.253704 0.000000 33.147579
Head -2.182504 -5.705571 -7.842694
1892
root -3.126593 33.268895 -0.511803 8.041162 -2.316369 2.522988
RightUpLeg -2.164881 -5.500015 -1.327572
RightLeg 0.391303 -0.000000 -0.000000
RightFoot -10.530236 -2.932150 2.721719
RightToeBase 5.559283 -0.000000 -0.000000
LeftUpLeg -2.456516 3.547668 1.140839
LeftLeg 2.380356 -0.000000 -0.000000
LeftFoot -10.138515 2.760035 -10.088563
LeftToeBase 8.570966 -0.000000 -0.000000
Spine -12.313319 8.616911 0.272461
RightShoulder 28.305822 52.781801 -32.893320
RightArm 88.566564 -38.995819 71.772254
RightForeArm -18.281995 -0.000000 48.788591
RightHand 10.976859 0.000000 -6.852794
RightHandThumb1 -24.326973 -0.000000 -32.862282
LeftShoulder -7.223716 -4.826644 12.751077
LeftArm 32.547140 30.113135 -82.795131
LeftForeArm -55.818996 -0.000000 117.066007
LeftHand 7.505614 -0.000000 -29.351621
LeftHandThumb1 -26.253704 0.000000 33.147579
Head -2.089426 -5.821625 -7.793930
1893
root -3.129844 33.267349 -0.502840 8.044415 -2.320508 2.519049
RightUpLeg -2.139883 -5.485766 -1.321433
RightLeg 0.365580 -0.000000 -0.000000
RightFoot -10.533934 -2.933817 2.728889
RightToeBase 5.536951 -0.000000 -0.000000
LeftUpLeg -2.444470 3.519287 1.147890
LeftLeg 2.384657 -0.000000 -0.000000
LeftFoot -10.165547 2.806565 -10.062636
LeftToeBase 8.564656 -0.000000 -0.000000
Spine -12.333664 8.703453 0.238707
RightShoulder 28.247798 52.659484 -32.873315
RightArm 88.659649 -39.042815 71.675397
RightForeArm -18.362610 0.000000 48.812100
RightHand 10.903601 0.000000 -6.675175
RightHandThumb1 -24.326973 -0.000000 -32.862282
LeftShoulder -7.207100 -4.889503 12.692156
LeftArm 32.402057 30.096244 -82.876647
LeftForeArm -55.679185 -0.000000 117.055023
LeftHand 7.506414 -0.000000 -29.460179
LeftHandThumb1 -26.253704 0.000000 33.147579
Head -1.995190 -5.876045 -7.773440
1894
root -3.132991 33.264249 -0.493962 8.052750 -2.327212 2.514296
RightUpLeg -2.117122 -5.492333 -1.313066
RightLeg 0.330157 -0.000000 -0.000000
RightFoot -10.539998 -2.920401 2.723017
RightToeBase 5.568481 -0.000000 -0.000000
LeftUpLeg -2.441127 3.518708 1.157032
LeftLeg 2.395762 -0.000000 -0.000000
LeftFoot -10.203614 2.807687 -10.075332
LeftToeBase 8.551255 -0.000000 -0.000000
Spine -12.366957 8.781158 0.202654
RightShoulder 28.279743 52.593290 -32.787739
RightArm 88.625633 -39.087787 71.716550
RightForeArm -18.548708 -0.000000 48.836041
RightHand 10.941533 -0.000000 -6.608033
RightHandThumb1 -24.326973 -0.000000 -32.862282
LeftShoulder -7.191010 -5.031894 12.671203
LeftArm 32.141951 30.088809 -83.028565
LeftForeArm -55.559901 -0.000000 117.049498
LeftHand 7.503703 -0.000000 -29.590347
LeftHandThumb1 -26.253704 0.000000 33.147579
Head -1.887880 -5.920639 -7.744296
1895
root -3.135705 33.263174 -0.484688 8.057943 -2.324347 2.516380
RightUpLeg -2.087546 -5.508743 -1.312111
RightLeg 0.293154 -0.000000 -0.000000
RightFoot -10.533103 -2.904366 2.735483
RightToeBase 5.534369 -0.000000 -0.000000
LeftUpLeg -2.437684 3.491523 1.155487
LeftLeg 2.412155 -0.000000 -0.000000
LeftFoot -10.225092 2.848523 -10.104590
LeftToeBase 8.560497 -0.000000 -0.000000
Spine -12.385957 8.839814 0.160618
RightShoulder 28.346425 52.621603 -32.630077
RightArm 88.546126 -39.183617 71.795084
RightForeArm -18.715721 0.000000 48.811950
RightHand 10.912696 -0.000000 -6.583949
RightHandThumb1 -24.326973 -0.000000 -32.862282
LeftShoulder -7.197791 -4.930214 12.604895
LeftArm 32.161790 30.063135 -83.043942
LeftForeArm -55.486521 -0.000000 117.052678
LeftHand 7.437049 -0.000000 -29.686028
LeftHandThumb1 -26.253704 0.000000 33.147579
Head -1.822715 -5.954798 -7.699076
1896
root -3.139479 33.261370 -0.476187 8.068717 -2.321535 2.512165
RightUpLeg -2.067487 -5.502216 -1.303583
RightLeg 0.262795 -0.000000 -0.000000
RightFoot -10.540155 -2.913842 2.724772
RightToeBase 5.581050 -0.000000 -0.000000
LeftUpLeg -2.440501 3.478083 1.165775
LeftLeg 2.428577 -0.000000 -0.000000
LeftFoot -10.258316 2.859408 -10.109476
LeftToeBase 8.570048 -0.000000 -0.000000
Spine -12.414296 8.887015 0.132339
RightShoulder 28.414452 52.536361 -32.514953
RightArm 88.657689 -39.215180 71.726193
RightForeArm -18.826032 -0.000000 48.789940
RightHand 10.763373 -0.000000 -6.581181
RightHandThumb1 -24.326973 -0.000000 -32.862282
LeftShoulder -7.228780 -4.845838 12.537346
LeftArm 32.182939 30.060490 -83.035221
LeftForeArm -55.399851 -0.000000 117.052554
LeftHand 7.416634 -0.000000 -29.735480
LeftHandThumb1 -26.253704 0.000000 33.147579
Head -1.742824 -5.973800 -7.669969
1897
root -3.144378 33.260683 -0.465525 8.076156 -2.323347 2.497379
RightUpLeg -2.037477 -5.510367 -1.282778
RightLeg 0.224263 -0.000000 -0.000000
RightFoot -10.521176 -2.899999 2.715398
RightToeBase 5.588371 -0.000000 -0.000000
LeftUpLeg -2.429835 3.489937 1.188830
LeftLeg 2.431522 -0.000000 -0.000000
LeftFoot -10.285164 2.867952 -10.050553
LeftToeBase 8.623248 -0.000000 -0.000000
Spine -12.443965 8.938799 0.114328
RightShoulder 28.378453 52.271253 -32.488568
RightArm 88.949972 -39.220820 71.549360
RightForeArm -18.946078 0.000000 48.724486
RightHand 10.725167 0.000000 -6.497882
RightHandThumb1 -24.326973 -0.000000 -32.862282
LeftShoulder -7.246256 -4.822523 12.493128
LeftArm 32.095920 30.075494 -83.083713
LeftForeArm -55.256871 -0.000000 117.064026
LeftHand 7.444180 -0.000000 -29.814164
LeftHandThumb1 -26.253704 0.000000 33.147579
Head -1.660799 -5.983754 -7.638493
